HIERARCHY
ROOT Hips
{
	OFFSET 0.000000 0.000000 0.000000 
	CHANNELS 6 Xposition Yposition Zposition Zrotation Yrotation Xrotation
	JOINT LeftUpLeg
	{
		OFFSET 1.363060 -1.794630 0.839290 
		CHANNELS 3 Zrotation Yrotation Xrotation
		JOINT LeftLeg
		{
			OFFSET 2.448110 -6.726130 0.000000 
			CHANNELS 3 Zrotation Yrotation Xrotation
			JOINT LeftFoot
			{
				OFFSET 2.562200 -7.039590 0.000000 
				CHANNELS 3 Zrotation Yrotation Xrotation
				JOINT LeftToeBase
				{
					OFFSET 0.157640 -0.433110 2.322550 
					CHANNELS 3 Zrotation Yrotation Xrotation
					End Site
					{
						OFFSET 0.000000 0.000000 0.000000 
					}
				}
			}
		}
	}
	JOINT RightUpLeg
	{
		OFFSET -1.305520 -1.794630 0.839290 
		CHANNELS 3 Zrotation Yrotation Xrotation
		JOINT RightLeg
		{
			OFFSET -2.542530 -6.985550 0.000000 
			CHANNELS 3 Zrotation Yrotation Xrotation
			JOINT RightFoot
			{
				OFFSET -2.568260 -7.056230 0.000000 
				CHANNELS 3 Zrotation Yrotation Xrotation
				JOINT RightToeBase
				{
					OFFSET -0.164730 -0.452590 2.363150 
					CHANNELS 3 Zrotation Yrotation Xrotation
					End Site
					{
						OFFSET 0.000000 0.000000 0.000000 
					}
				}
			}
		}
	}
	JOINT Spine
	{
		OFFSET 0.028270 2.035590 -0.193380 
		CHANNELS 3 Zrotation Yrotation Xrotation
		JOINT Spine1
		{
			OFFSET 0.056720 2.048850 -0.042750 
			CHANNELS 3 Zrotation Yrotation Xrotation
			JOINT Neck1
			{
				OFFSET -0.054170 1.746240 0.172020 
				CHANNELS 3 Zrotation Yrotation Xrotation
				JOINT Head
				{
					OFFSET 0.104070 1.761360 -0.123970 
					CHANNELS 3 Zrotation Yrotation Xrotation
					End Site
					{
						OFFSET 0.000000 0.000000 0.000000 
					}
				}
			}
			JOINT LeftArm
			{
				OFFSET 3.362410 1.200890 -0.311210 
				CHANNELS 3 Zrotation Yrotation Xrotation
				JOINT LeftForeArm
				{
					OFFSET 4.983000 -0.000000 -0.000000 
					CHANNELS 3 Zrotation Yrotation Xrotation
					JOINT LeftHand
					{
						OFFSET 3.483560 -0.000000 -0.000000 
						CHANNELS 3 Zrotation Yrotation Xrotation
						JOINT LeftHandIndex1
						{
							OFFSET 0.715260 -0.000000 -0.000000 
							CHANNELS 3 Zrotation Yrotation Xrotation
							End Site
							{
								OFFSET 0.000000 0.000000 0.000000 
							}
						}
					}
				}
			}
			JOINT RightArm
			{
				OFFSET -3.136600 1.374050 -0.404650 
				CHANNELS 3 Zrotation Yrotation Xrotation
				JOINT RightForeArm
				{
					OFFSET -5.241900 -0.000000 -0.000000 
					CHANNELS 3 Zrotation Yrotation Xrotation
					JOINT RightHand
					{
						OFFSET -3.444170 -0.000000 -0.000000 
						CHANNELS 3 Zrotation Yrotation Xrotation
						JOINT RightHandIndex1
						{
							OFFSET -0.622530 -0.000000 -0.000000 
							CHANNELS 3 Zrotation Yrotation Xrotation
							End Site
							{
								OFFSET 0.000000 0.000000 0.000000 
							}
						}
					}
				}
			}
		}
	}
}
MOTION
Frames: 6
Frame Time: 0.041667
7.091047 17.668750 -12.532114 -3.278826 -26.795240 8.318945 -10.499492 -2.286524 -20.637521 0.855059 7.768809 20.769339 -0.671046 7.900085 3.200918 0.001000 -0.206100 -0.566300 23.043529 3.823948 -6.070817 -0.931612 -7.381996 19.630565 2.380195 -12.735727 -9.732488 -0.038200 -1.260900 3.466900 2.814228 -1.217725 -2.737634 3.921055 -0.785569 -2.482161 12.619249 -17.387475 6.555353 5.952800 -8.384500 8.714400 -84.130544 -1.474433 58.280146 78.582445 -61.032531 -43.498241 -2.389041 1.740880 -47.967590 -7.125000 0.000000 0.000000 71.144391 11.900393 76.616572 -75.366691 60.992609 -38.417429 -1.728063 -0.677369 5.531234 7.125000 0.000000 0.000000 
7.082044 17.667167 -12.531322 -3.283603 -26.886119 8.302349 -10.387335 -2.394235 -20.424958 0.854501 7.761872 20.769043 -0.607725 7.303211 2.961044 0.002400 -0.316100 -0.868400 23.065763 3.876935 -6.020985 -0.932944 -7.388204 19.649277 2.361469 -12.667137 -9.767723 -0.043900 -1.352600 3.719600 2.821138 -1.261314 -2.730019 3.881401 -0.808507 -2.368461 12.521191 -17.291733 6.641338 5.941900 -8.349300 8.726300 -84.187496 -1.340694 58.297189 78.348647 -61.052621 -43.313220 -2.382528 1.756117 -48.083939 -7.125000 0.000000 0.000000 71.116036 11.553727 76.625883 -75.452218 61.012694 -38.485161 -1.733976 -0.669210 5.651946 7.125000 0.000000 0.000000 
7.073832 17.665781 -12.529442 -3.309004 -26.969310 8.274635 -10.253205 -2.544940 -20.118677 0.853414 7.752554 20.762786 -0.554656 6.778501 2.691964 0.004500 -0.431100 -1.184500 23.118046 3.957701 -5.953909 -0.937705 -7.403746 19.692308 2.368807 -12.699737 -9.802648 -0.041000 -1.306700 3.593100 2.824233 -1.205739 -2.738126 3.851120 -0.780505 -2.341128 12.314044 -17.310056 6.761741 5.834200 -8.361300 8.764000 -84.235503 -1.251982 58.471900 77.914930 -61.088559 -43.000321 -2.416754 1.729478 -47.965426 -7.125000 0.000000 0.000000 71.088219 11.165500 76.411496 -75.498688 61.028205 -38.554227 -1.752946 -0.651514 5.775566 7.125000 0.000000 0.000000 
7.068687 17.663308 -12.523506 -3.314200 -27.003702 8.292566 -10.156626 -2.848424 -19.825671 0.848587 7.740944 20.734883 -0.547996 6.672894 2.519475 0.005800 -0.492800 -1.354200 23.109478 3.798932 -6.038266 -0.941530 -7.415872 19.730683 2.316719 -12.492019 -9.757901 -0.042000 -1.323000 3.638000 2.844818 -1.272238 -2.764573 3.840552 -0.813448 -2.280195 12.257460 -17.204861 6.772147 5.855200 -8.327100 8.736400 -84.362185 -1.078924 58.447335 77.381490 -61.108565 -42.546550 -2.386507 1.759161 -47.095338 -7.125000 0.000000 0.000000 71.027666 10.730750 76.379312 -75.593466 61.047045 -38.622035 -1.748934 -0.642130 5.778815 7.125000 0.000000 0.000000 
7.061761 17.660933 -12.518361 -3.336674 -27.106356 8.284318 -10.050159 -3.044575 -19.493434 0.840534 7.717132 20.676578 -0.532123 6.482798 2.319141 0.007000 -0.541100 -1.486800 23.138014 3.849132 -5.994510 -0.944961 -7.428009 19.765072 2.303111 -12.441963 -9.781131 -0.042900 -1.336200 3.674500 2.844094 -1.253795 -2.767444 3.792331 -0.804948 -2.203313 12.160856 -17.172758 6.809317 5.821700 -8.318100 8.734600 -84.410176 -0.969722 58.526742 76.901170 -61.124480 -42.157399 -2.374835 1.770848 -46.414687 -7.125000 0.000000 0.000000 71.025843 10.342471 76.218074 -75.639132 61.064543 -38.667921 -1.751643 -0.632503 5.784658 7.125000 0.000000 0.000000 
7.054935 17.658262 -12.511732 -3.366434 -27.246518 8.270261 -9.948585 -3.233069 -19.104477 0.824874 7.673549 20.558524 -0.530382 6.416269 2.135853 0.007600 -0.562900 -1.546800 23.170725 3.946874 -5.918995 -0.948684 -7.441257 19.802758 2.293121 -12.407346 -9.814509 -0.043600 -1.347500 3.705400 2.840908 -1.208583 -2.766699 3.746406 -0.783059 -2.125091 12.075181 -17.155224 6.828405 5.787600 -8.314200 8.728500 -84.454016 -0.866247 58.608168 76.391048 -61.135270 -41.742659 -2.359377 1.784234 -45.550717 -7.125000 0.000000 0.000000 71.037740 9.956311 76.013237 -75.658364 61.080613 -38.695028 -1.751467 -0.624815 5.716434 7.125000 0.000000 0.000000 
